<?xml version="1.0" encoding="utf-8" ?>
<!-- Generator: Adobe Illustrator 28.3.0, SVG Export Plug-In . SVG Version: 6.00 Build 0)  -->
<svg version="1.1" id="Layer_1" xmlns="http://www.w3.org/2000/svg" xmlns:xlink="http://www.w3.org/1999/xlink" x="0px" y="0px"
	 viewBox="0 0 304.3 225.82" style="enable-background:new 0 0 304.3 225.82;" xml:space="preserve">
	<g>
		<path d="M0,63.91c41.45-0.7,82.9-1.39,124.35-2.11c13.98-0.24,27.97-0.68,41.95-0.77c3.86-0.02,4.81-1.59,4.79-5.1
			c-0.11-16.99-0.08-33.99,0.01-50.98c0.01-1.65,0.81-3.3,1.25-4.95c1.55,0.8,3.33,1.33,4.62,2.43
			c40.92,34.92,81.8,69.89,122.67,104.86c6.22,5.32,6.21,5.93-0.03,11.27c-40.88,34.97-81.75,69.94-122.68,104.86
			c-1.29,1.1-3.07,1.61-4.63,2.39c-0.42-1.66-1.2-3.32-1.21-4.98c-0.09-17.66-0.05-35.32-0.06-52.98c0-6.98-0.01-6.99-6.84-6.99
			c-52.65,0-105.3,0.01-157.95-0.04c-2.08,0-4.17-0.59-6.25-0.91C0,127.91,0,95.91,0,63.91z"/>
	</g>
</svg>
