<?xml version="1.0" encoding="utf-8"?>
<!-- Generator: Adobe Illustrator 28.3.0, SVG Export Plug-In . SVG Version: 6.00 Build 0)  -->
<svg version="1.1" id="Layer_1" xmlns="http://www.w3.org/2000/svg" xmlns:xlink="http://www.w3.org/1999/xlink" x="0px" y="0px"
	 viewBox="0 0 116.09 116.49" style="enable-background:new 0 0 116.09 116.49;" xml:space="preserve">
<path d="M48.98,0.54c6.28-0.83,9.31-0.78,20.42,0.75c19.23,4.31,33.01,15.56,41.38,33.21c2.51,5.29,7.19,18.87,4.5,33.04
	c-2.44,12.85-7.9,23.82-17.32,32.95c-23.36,22.64-61.8,21.05-83.5-3.58c-21.8-24.74-18.52-63.44,6.9-83.74
	C29.92,6.34,38.19,1.97,48.98,0.54z M65.69,58.9c0-6.66-0.1-13.31,0.04-19.97c0.08-3.61-1.31-5.18-4.99-5.02
	c-3.81,0.17-7.64,0.14-11.45-0.02c-3.73-0.15-5.14,1.75-5.03,5.15c0.11,3.3,0.27,6.7,5.1,5.96c3.9-0.6,4.96,1.4,4.94,4.88
	c-0.06,9.15-0.05,18.3,0.1,27.45c0.07,4.25-1.12,6.83-5.99,6.12c-4.13-0.6-4.05,2.26-4.06,5.08c-0.01,2.96-0.21,5.8,4.15,5.74
	c7.32-0.11,14.64,0,21.96,0.03c3.37,0.01,4.84-1.67,4.64-5c-0.18-3.03,0.11-6.45-4.55-5.92c-3.92,0.45-4.92-1.61-4.88-5.02
	C65.75,71.88,65.7,65.39,65.69,58.9z M66.33,21.76c-0.05-3.8-2.9-6.6-6.66-6.54c-3.82,0.06-6.52,2.86-6.46,6.69
	c0.06,3.92,2.7,6.52,6.62,6.53C63.57,28.45,66.38,25.57,66.33,21.76z"/>
</svg>
